# xmcd CD database file
#
# Track frame offsets:
#	150
#	55961
#	93501
#	109174
#	128500
#	179475
#	252676
#
# Disc length: 3650 seconds
#
# Revision: 0
# Processed by: cddbd v1.5.2PL0 Copyright (c) Steve Scherf et al.
# Submitted via: CDex 1.70beta2
#
DISCID=610e4007
DTITLE=On Fillmore - Sleeps with Fishes
DYEAR=2007
DGENRE=Jazz
TTITLE0=Hikari
TTITLE1=Taisho
TTITLE2=Showa
TTITLE3=Asagi
TTITLE4=Doitsu
TTITLE5=Captive Audience
TTITLE6=Captive Audience Reprise
EXTD=YEAR: 2007
EXTT0=
EXTT1=
EXTT2=
EXTT3=
EXTT4=
EXTT5=
EXTT6=
PLAYORDER=
